# Blender v2.79 (sub 0) OBJ File: 'rocket.blend'
# www.blender.org
mtllib rocket.mtl
o Cube
v 7.927726 31.891556 -7.927726
v 7.927726 31.891556 7.927726
v -7.927727 31.891556 7.927725
v -7.927723 31.891556 -7.927729
v -0.000001 47.747009 0.000001
v 7.927726 0.108799 -7.927726
v 7.927726 0.108799 7.927726
v -7.927723 0.108799 -7.927729
v -7.927727 0.108799 7.927725
v 7.927726 31.891556 4.320811
v -7.927726 31.891556 4.320809
v 7.927726 0.108799 4.320811
v -7.927726 0.108799 4.320809
v -7.927724 31.891556 -3.852813
v 2.637442 42.472122 2.637444
v -2.637444 42.472122 2.637443
v -7.927724 0.108799 -3.852813
v 7.927726 31.891556 -3.852810
v 7.927726 0.108799 -3.852810
v 2.558875 31.891556 -7.927727
v 2.558874 31.891556 7.927726
v 2.558875 0.108799 -7.927727
v 2.558874 0.108799 7.927726
v 2.558874 0.108799 4.320811
v 2.558875 0.108799 -3.852811
v 0.851301 42.472122 2.637444
v 7.927726 31.891556 6.124269
v -2.684424 31.891556 -7.927728
v 3.963863 39.819283 -3.963862
v -2.684427 31.891556 7.927725
v -7.927724 31.891556 -5.890271
v 1.318720 45.109566 1.318723
v -1.318722 45.109566 1.318722
v -3.963862 39.819283 -3.963864
v 7.927726 0.108799 6.124269
v -2.684424 0.108799 -7.927728
v -2.684427 0.108799 7.927725
v -7.927724 0.108799 -5.890271
v -7.927726 31.891556 6.124267
v -7.927726 0.108799 6.124267
v -2.684426 0.108799 4.320810
v 7.927726 31.891556 -5.890268
v 7.927726 0.108799 -5.890268
v -2.684425 0.108799 -3.852812
v -5.282584 37.181839 -0.607685
v -0.893071 42.472122 2.637443
v 5.282584 37.181839 -0.607683
v 5.243300 31.891556 -7.927726
v 5.243300 31.891556 7.927726
v 5.243300 0.108799 -7.927726
v 5.243300 0.108799 7.927726
v 5.243300 0.108799 4.320811
v 5.243300 0.108799 -3.852811
v 1.744371 42.472122 2.637444
v 2.558875 0.108799 -5.890269
v 2.558874 0.108799 6.124268
v 5.243300 0.108799 6.124269
v 5.243300 0.108799 -5.890269
v 4.623223 38.500561 -2.285773
v -2.684425 0.108799 -5.890270
v -2.684426 0.108799 6.124268
v 0.639719 35.855419 -5.945795
v -4.623223 38.500561 -2.285774
v 0.212824 43.790844 1.978083
v 7.927726 31.891556 -2.064831
v 7.927726 0.108799 -2.064831
v -7.927725 31.891556 -2.064833
v 3.794692 40.157623 3.794693
v -3.794693 40.157623 3.794692
v -7.927725 0.108799 -2.064833
v 1.224832 40.157623 3.794693
v 2.558875 0.108799 -2.064831
v 5.243300 0.108799 -2.064831
v 2.509762 40.157623 3.794693
v -1.284930 40.157623 3.794693
v -5.861208 36.024590 0.864929
v -2.684425 0.108799 -2.064832
v 5.861208 36.024590 0.864931
v 7.927726 31.891556 2.149693
v 7.927726 0.108799 2.149693
v 2.105300 34.702019 6.522494
v 4.313897 34.702019 6.522494
v -2.208598 34.702019 6.522494
v -7.225110 33.296787 4.336092
v 7.225110 33.296787 4.336094
v -7.927726 31.891556 2.149691
v 6.522494 34.702019 6.522495
v -6.522495 34.702019 6.522494
v -7.927726 0.108799 2.149691
v 2.558874 0.108799 2.149693
v 5.243300 0.108799 2.149693
v -2.684426 0.108799 2.149692
v 7.927726 16.160089 7.927726
v 7.927726 16.160089 -7.927726
v -7.927727 16.160089 7.927725
v -7.927723 16.160089 -7.927729
v -7.927726 16.160089 4.320809
v 7.927726 16.160089 4.320811
v 7.927726 16.160089 -3.852810
v -7.927724 16.160089 -3.852813
v 2.558875 16.160089 -7.927727
v 2.558874 16.160089 7.927726
v 5.243300 16.160089 7.927726
v -2.684424 16.160089 -7.927728
v 7.927726 16.160089 -5.890268
v -7.927726 16.160089 6.124267
v -7.927724 16.160089 -5.890271
v 5.243300 16.160089 -7.927726
v -2.684427 16.160089 7.927725
v 7.927726 16.160089 6.124269
v -7.927725 16.160089 -2.064833
v 7.927726 16.160089 -2.064831
v -7.927726 16.160089 2.149691
v 7.927726 16.160089 2.149693
v 2.558876 0.108799 -15.625279
v -2.684423 0.108799 -15.625280
v -2.684427 0.108799 15.625278
v 2.558873 0.108799 15.625278
v -15.625278 0.108799 -2.064835
v -15.625278 0.108799 2.149689
v 15.625278 0.108799 2.149693
v 15.625278 0.108799 -2.064831
vn 1.0000 0.0000 0.0000
vn 0.8944 0.4472 0.0000
vn -0.0000 0.4472 0.8944
vn -0.8944 0.4472 -0.0000
vn 0.0000 0.4472 -0.8944
vn 0.0000 -1.0000 -0.0000
vn -0.0000 0.0000 1.0000
vn 0.0000 0.0000 -1.0000
vn -1.0000 0.0000 -0.0000
vn 0.9017 0.4324 0.0000
vn -0.9017 0.4324 -0.0000
vn 0.0000 0.4324 -0.9017
vn 0.0000 0.4324 0.9017
usemtl Material
s off
f 110//1 93//1 7//1 35//1
f 85//2 87//2 2//2 27//2
f 64//3 33//3 16//3 46//3
f 63//4 34//4 4//4 31//4
f 62//5 48//5 20//5 28//5
f 61//6 37//6 9//6 40//6
f 109//7 95//7 9//7 37//7
f 108//8 94//8 6//8 50//8
f 107//9 96//9 8//9 38//9
f 106//9 97//9 13//9 40//9
f 92//6 41//6 13//6 89//6
f 114//1 98//1 12//1 80//1
f 105//1 99//1 19//1 43//1
f 60//6 44//6 17//6 38//6
f 111//9 100//9 17//9 70//9
f 76//4 45//4 14//4 67//4
f 75//3 46//3 16//3 69//3
f 59//2 32//2 15//2 47//2
f 74//3 54//3 26//3 71//3
f 58//6 53//6 25//6 55//6
f 91//6 52//6 24//6 90//6
f 103//7 102//7 23//7 51//7
f 57//6 51//6 23//6 56//6
f 52//6 57//6 56//6 24//6
f 12//6 35//6 57//6 52//6
f 35//6 7//6 51//6 57//6
f 93//7 103//7 51//7 7//7
f 96//8 104//8 36//8 8//8
f 80//6 12//6 52//6 91//6
f 50//6 58//6 55//6 22//6
f 6//6 43//6 58//6 50//6
f 43//6 19//6 53//6 58//6
f 68//3 15//3 54//3 74//3
f 42//2 59//2 47//2 18//2
f 1//2 29//2 59//2 42//2
f 29//2 5//2 32//2 59//2
f 71//3 26//3 46//3 75//3
f 69//4 16//4 45//4 76//4
f 36//6 60//6 38//6 8//6
f 22//6 55//6 60//6 36//6
f 55//6 25//6 44//6 60//6
f 94//1 105//1 43//1 6//1
f 90//6 24//6 41//6 92//6
f 95//9 106//9 40//9 9//9
f 100//9 107//9 38//9 17//9
f 101//8 108//8 50//8 22//8
f 41//6 61//6 40//6 13//6
f 24//6 56//6 61//6 41//6
f 56//6 23//6 37//6 61//6
f 34//5 62//5 28//5 4//5
f 5//5 29//5 62//5 34//5
f 29//5 1//5 48//5 62//5
f 45//4 63//4 31//4 14//4
f 16//4 33//4 63//4 45//4
f 33//4 5//4 34//4 63//4
f 54//3 64//3 46//3 26//3
f 15//3 32//3 64//3 54//3
f 32//3 5//3 33//3 64//3
f 79//2 85//2 27//2 10//2
f 98//1 110//1 35//1 12//1
f 18//2 47//2 78//2 65//2
f 25//6 72//6 77//6 44//6
f 88//4 69//4 76//4 84//4
f 81//3 71//3 75//3 83//3
f 87//3 68//3 74//3 82//3
f 19//6 66//6 73//6 53//6
f 53//6 73//6 72//6 25//6
f 82//3 74//3 71//3 81//3
f 83//3 75//3 69//3 88//3
f 84//4 76//4 67//4 86//4
f 99//1 112//1 66//1 19//1
f 44//6 77//6 70//6 17//6
f 47//2 15//2 68//2 78//2
f 97//9 113//9 89//9 13//9
f 39//4 84//4 86//4 11//4
f 30//3 83//3 88//3 3//3
f 49//3 82//3 81//3 21//3
f 2//3 87//3 82//3 49//3
f 21//3 81//3 83//3 30//3
f 3//4 88//4 84//4 39//4
f 65//2 78//2 85//2 79//2
f 72//6 90//6 92//6 77//6
f 66//6 80//6 91//6 73//6
f 73//6 91//6 90//6 72//6
f 77//6 92//6 89//6 70//6
f 78//2 68//2 87//2 85//2
f 65//1 79//1 114//1 112//1
f 11//9 86//9 113//9 97//9
f 18//1 65//1 112//1 99//1
f 86//9 67//9 111//9 113//9
f 10//1 27//1 110//1 98//1
f 21//7 30//7 109//7 102//7
f 20//8 48//8 108//8 101//8
f 14//9 31//9 107//9 100//9
f 3//9 39//9 106//9 95//9
f 1//1 42//1 105//1 94//1
f 4//8 28//8 104//8 96//8
f 2//7 49//7 103//7 93//7
f 49//7 21//7 102//7 103//7
f 28//8 20//8 101//8 104//8
f 67//9 14//9 100//9 111//9
f 42//1 18//1 99//1 105//1
f 79//1 10//1 98//1 114//1
f 39//9 11//9 97//9 106//9
f 31//9 4//9 96//9 107//9
f 48//8 1//8 94//8 108//8
f 30//7 3//7 95//7 109//7
f 27//1 2//1 93//1 110//1
f 114//10 121//10 122//10 112//10
f 22//1 115//1 101//1
f 36//6 116//6 115//6 22//6
f 104//9 116//9 36//9
f 111//11 119//11 120//11 113//11
f 37//9 117//9 109//9
f 23//6 118//6 117//6 37//6
f 102//1 118//1 23//1
f 101//12 115//12 116//12 104//12
f 70//8 119//8 111//8
f 89//6 120//6 119//6 70//6
f 113//7 120//7 89//7
f 80//7 121//7 114//7
f 66//6 122//6 121//6 80//6
f 112//8 122//8 66//8
f 109//13 117//13 118//13 102//13
