# Blender v2.79 (sub 0) OBJ File: 'sideways_rocket.blend'
# www.blender.org
mtllib sideways_rocket.mtl
o Cube
v 7.901932 16.140112 9.168047
v 7.901932 0.284660 9.167605
v -7.953522 0.284662 9.167605
v -7.953518 16.140116 9.168047
v -0.025796 8.211944 25.023279
v 7.901932 16.140997 -22.614710
v 7.901932 0.285544 -22.615152
v -7.953518 16.140999 -22.614710
v -7.953522 0.285546 -22.615152
v 7.901932 3.891575 9.167706
v -7.953521 3.891577 9.167706
v 7.901932 3.892459 -22.615053
v -7.953521 3.892461 -22.615053
v -7.953519 12.065199 9.167933
v 2.611647 5.574648 19.748320
v -2.663238 5.574649 19.748320
v -7.953519 12.066084 -22.614824
v 7.901932 12.065197 9.167933
v 7.901932 12.066081 -22.614824
v 2.533081 16.140114 9.168047
v 2.533080 0.284661 9.167605
v 2.533081 16.140999 -22.614710
v 2.533080 0.285545 -22.615152
v 2.533080 3.892460 -22.615053
v 2.533080 12.066082 -22.614824
v 0.825506 5.574648 19.748320
v 7.901932 2.088118 9.167656
v -2.710219 16.140114 9.168047
v 3.938068 12.176028 17.095663
v -2.710221 0.284661 9.167605
v -7.953518 14.102657 9.167990
v 1.292926 6.893296 22.385799
v -1.344517 6.893296 22.385799
v -3.989657 12.176030 17.095663
v 7.901932 2.089002 -22.615103
v -2.710219 16.140999 -22.614710
v -2.710221 0.285545 -22.615152
v -7.953518 14.103541 -22.614767
v -7.953521 2.088120 9.167656
v -7.953521 2.089004 -22.615103
v -2.710221 3.892461 -22.615053
v 7.901932 14.102654 9.167990
v 7.901932 14.103539 -22.614767
v -2.710219 12.066083 -22.614824
v -5.308378 8.819924 14.458127
v -0.918866 5.574649 19.748320
v 5.256789 8.819922 14.458127
v 5.217506 16.140114 9.168047
v 5.217505 0.284660 9.167605
v 5.217506 16.140997 -22.614710
v 5.217505 0.285544 -22.615152
v 5.217505 3.892460 -22.615053
v 5.217506 12.066081 -22.614824
v 1.718577 5.574648 19.748320
v 2.533080 14.103540 -22.614767
v 2.533080 2.089003 -22.615103
v 5.217505 2.089002 -22.615103
v 5.217506 14.103539 -22.614767
v 4.597428 10.497975 15.776895
v -2.710219 14.103540 -22.614767
v -2.710221 2.089003 -22.615103
v 0.613925 14.158072 13.131855
v -4.649017 10.497976 15.776895
v 0.187030 6.233973 21.067060
v 7.901932 10.277217 9.167883
v 7.901932 10.278101 -22.614874
v -7.953519 10.277220 9.167883
v 3.768897 4.417463 17.433788
v -3.820488 4.417464 17.433788
v -7.953519 10.278104 -22.614874
v 1.199038 4.417463 17.433788
v 2.533080 10.278102 -22.614874
v 5.217506 10.278102 -22.614874
v 2.483967 4.417464 17.433788
v -1.310725 4.417464 17.433788
v -5.887003 7.347342 13.300837
v -2.710220 10.278103 -22.614874
v 5.835414 7.347340 13.300837
v 7.901932 6.062693 9.167767
v 7.901932 6.063578 -22.614992
v 2.079505 1.689814 11.978107
v 4.288103 1.689814 11.978107
v -2.234392 1.689814 11.978107
v -7.250905 3.876255 10.572937
v 7.199316 3.876253 10.572937
v -7.953520 6.062696 9.167767
v 6.496700 1.689814 11.978107
v -6.548290 1.689815 11.978107
v -7.953520 6.063580 -22.614992
v 2.533080 6.063578 -22.614992
v 5.217506 6.063578 -22.614992
v -2.710220 6.063579 -22.614992
v 7.901932 0.285098 -6.563862
v 7.901932 16.140549 -6.563419
v -7.953522 0.285099 -6.563862
v -7.953518 16.140553 -6.563419
v -7.953521 3.892015 -6.563761
v 7.901932 3.892013 -6.563761
v 7.901932 12.065634 -6.563534
v -7.953519 12.065637 -6.563534
v 2.533081 16.140551 -6.563419
v 2.533080 0.285098 -6.563862
v 5.217505 0.285098 -6.563862
v -2.710219 16.140553 -6.563419
v 7.901932 14.103092 -6.563477
v -7.953521 2.088557 -6.563810
v -7.953518 14.103094 -6.563477
v 5.217506 16.140551 -6.563419
v -2.710221 0.285099 -6.563862
v 7.901932 2.088555 -6.563810
v -7.953519 10.277658 -6.563583
v 7.901932 10.277655 -6.563583
v -7.953520 6.063133 -6.563700
v 7.901932 6.063131 -6.563700
v 2.533082 23.838551 -22.614496
v -2.710217 23.838551 -22.614496
v -2.710222 -7.412007 -22.615366
v 2.533079 -7.412007 -22.615366
v -15.651073 10.278105 -22.614874
v -15.651073 6.063581 -22.614992
v 15.599483 6.063578 -22.614992
v 15.599483 10.278101 -22.614874
vn 1.0000 -0.0000 0.0000
vn 0.8944 -0.0000 0.4472
vn 0.0000 -0.8944 0.4472
vn -0.8944 -0.0000 0.4472
vn 0.0000 0.8944 0.4472
vn 0.0000 0.0000 -1.0000
vn -0.0000 -1.0000 -0.0000
vn 0.0000 1.0000 0.0000
vn -1.0000 0.0000 0.0000
vn 0.9017 -0.0000 0.4324
vn -0.9017 -0.0000 0.4324
vn 0.0000 0.9017 0.4324
vn -0.0000 -0.9017 0.4324
usemtl Material
s off
f 110//1 93//1 7//1 35//1
f 85//2 87//2 2//2 27//2
f 64//3 33//3 16//3 46//3
f 63//4 34//4 4//4 31//4
f 62//5 48//5 20//5 28//5
f 61//6 37//6 9//6 40//6
f 109//7 95//7 9//7 37//7
f 108//8 94//8 6//8 50//8
f 107//9 96//9 8//9 38//9
f 106//9 97//9 13//9 40//9
f 92//6 41//6 13//6 89//6
f 114//1 98//1 12//1 80//1
f 105//1 99//1 19//1 43//1
f 60//6 44//6 17//6 38//6
f 111//9 100//9 17//9 70//9
f 76//4 45//4 14//4 67//4
f 75//3 46//3 16//3 69//3
f 59//2 32//2 15//2 47//2
f 74//3 54//3 26//3 71//3
f 58//6 53//6 25//6 55//6
f 91//6 52//6 24//6 90//6
f 103//7 102//7 23//7 51//7
f 57//6 51//6 23//6 56//6
f 52//6 57//6 56//6 24//6
f 12//6 35//6 57//6 52//6
f 35//6 7//6 51//6 57//6
f 93//7 103//7 51//7 7//7
f 96//8 104//8 36//8 8//8
f 80//6 12//6 52//6 91//6
f 50//6 58//6 55//6 22//6
f 6//6 43//6 58//6 50//6
f 43//6 19//6 53//6 58//6
f 68//3 15//3 54//3 74//3
f 42//2 59//2 47//2 18//2
f 1//2 29//2 59//2 42//2
f 29//2 5//2 32//2 59//2
f 71//3 26//3 46//3 75//3
f 69//4 16//4 45//4 76//4
f 36//6 60//6 38//6 8//6
f 22//6 55//6 60//6 36//6
f 55//6 25//6 44//6 60//6
f 94//1 105//1 43//1 6//1
f 90//6 24//6 41//6 92//6
f 95//9 106//9 40//9 9//9
f 100//9 107//9 38//9 17//9
f 101//8 108//8 50//8 22//8
f 41//6 61//6 40//6 13//6
f 24//6 56//6 61//6 41//6
f 56//6 23//6 37//6 61//6
f 34//5 62//5 28//5 4//5
f 5//5 29//5 62//5 34//5
f 29//5 1//5 48//5 62//5
f 45//4 63//4 31//4 14//4
f 16//4 33//4 63//4 45//4
f 33//4 5//4 34//4 63//4
f 54//3 64//3 46//3 26//3
f 15//3 32//3 64//3 54//3
f 32//3 5//3 33//3 64//3
f 79//2 85//2 27//2 10//2
f 98//1 110//1 35//1 12//1
f 18//2 47//2 78//2 65//2
f 25//6 72//6 77//6 44//6
f 88//4 69//4 76//4 84//4
f 81//3 71//3 75//3 83//3
f 87//3 68//3 74//3 82//3
f 19//6 66//6 73//6 53//6
f 53//6 73//6 72//6 25//6
f 82//3 74//3 71//3 81//3
f 83//3 75//3 69//3 88//3
f 84//4 76//4 67//4 86//4
f 99//1 112//1 66//1 19//1
f 44//6 77//6 70//6 17//6
f 47//2 15//2 68//2 78//2
f 97//9 113//9 89//9 13//9
f 39//4 84//4 86//4 11//4
f 30//3 83//3 88//3 3//3
f 49//3 82//3 81//3 21//3
f 2//3 87//3 82//3 49//3
f 21//3 81//3 83//3 30//3
f 3//4 88//4 84//4 39//4
f 65//2 78//2 85//2 79//2
f 72//6 90//6 92//6 77//6
f 66//6 80//6 91//6 73//6
f 73//6 91//6 90//6 72//6
f 77//6 92//6 89//6 70//6
f 78//2 68//2 87//2 85//2
f 65//1 79//1 114//1 112//1
f 11//9 86//9 113//9 97//9
f 18//1 65//1 112//1 99//1
f 86//9 67//9 111//9 113//9
f 10//1 27//1 110//1 98//1
f 21//7 30//7 109//7 102//7
f 20//8 48//8 108//8 101//8
f 14//9 31//9 107//9 100//9
f 3//9 39//9 106//9 95//9
f 1//1 42//1 105//1 94//1
f 4//8 28//8 104//8 96//8
f 2//7 49//7 103//7 93//7
f 49//7 21//7 102//7 103//7
f 28//8 20//8 101//8 104//8
f 67//9 14//9 100//9 111//9
f 42//1 18//1 99//1 105//1
f 79//1 10//1 98//1 114//1
f 39//9 11//9 97//9 106//9
f 31//9 4//9 96//9 107//9
f 48//8 1//8 94//8 108//8
f 30//7 3//7 95//7 109//7
f 27//1 2//1 93//1 110//1
f 114//10 121//10 122//10 112//10
f 22//1 115//1 101//1
f 36//6 116//6 115//6 22//6
f 104//9 116//9 36//9
f 111//11 119//11 120//11 113//11
f 37//9 117//9 109//9
f 23//6 118//6 117//6 37//6
f 102//1 118//1 23//1
f 101//12 115//12 116//12 104//12
f 70//8 119//8 111//8
f 89//6 120//6 119//6 70//6
f 113//7 120//7 89//7
f 80//7 121//7 114//7
f 66//6 122//6 121//6 80//6
f 112//8 122//8 66//8
f 109//13 117//13 118//13 102//13
